# xmcd
#
# Track frame offsets:
#	150
#	32533
#	44880
#	58052
#	77099
#	96178
#	108842
#	131539
#	154473
#	170748
#	190618
#	205047
#	220736
#	238194
#	258103
#	274787
#	297147
#	310756
#
# Disc length: 4393 seconds
#
# Revision: 1
# Processed by: cddbd v1.5.2PL0 Copyright (c) Steve Scherf et al.
# Submitted via: EasyCDDAExtractor 10.2.0.1
#
DISCID=02112712
DTITLE=Eric Clapton - The Cream Of Clapton
DYEAR=1995
DGENRE=Blues
TTITLE0=Layla
TTITLE1=Badge
TTITLE2=I feel Free
TTITLE3=Sunshine of your love
TTITLE4=Crossroads
TTITLE5=Strange Brew
TTITLE6=White Room
TTITLE7=Bell Bottom Blues
TTITLE8=Cocaine
TTITLE9=I shot the Sherrif
TTITLE10=After Midnight
TTITLE11=Sweet Chariot
TTITLE12=Lay Down Sally
TTITLE13=Knockin On Heavins Door
TTITLE14=Wonderful Tonight
TTITLE15=Let It Grow
TTITLE16=Promises
TTITLE17=Wont Stand It
EXTD=
EXTT0=
EXTT1=
EXTT2=
EXTT3=
EXTT4=
EXTT5=
EXTT6=
EXTT7=
EXTT8=
EXTT9=
EXTT10=
EXTT11=
EXTT12=
EXTT13=
EXTT14=
EXTT15=
EXTT16=
EXTT17=
PLAYORDER=
